<svg version="1.1" xmlns="http://www.w3.org/2000/svg" xmlns:xlink="http://www.w3.org/1999/xlink" viewBox="0 0 172 172"><g fill="none" fill-rule="nonzero" stroke="none" stroke-width="1" stroke-linecap="butt" stroke-linejoin="miter" stroke-miterlimit="10" stroke-dasharray="" stroke-dashoffset="0" font-family="none" font-weight="none" font-size="none" text-anchor="none" style="mix-blend-mode: normal"><path d="M0,172v-172h172v172z" fill="#ffffff"></path><g fill="#3f51b5"><path d="M170.65625,18.8125c0,-9.675 -7.79375,-17.46875 -17.46875,-17.46875h-20.15625c-2.28438,0 -4.03125,1.74687 -4.03125,4.03125c0,2.28437 1.74687,4.03125 4.03125,4.03125h20.15625c5.24062,0 9.40625,4.16563 9.40625,9.40625v20.15625c0,2.28437 1.74687,4.03125 4.03125,4.03125c2.28438,0 4.03125,-1.74688 4.03125,-4.03125zM5.375,43c2.28437,0 4.03125,-1.74688 4.03125,-4.03125v-20.15625c0,-5.24062 4.16563,-9.40625 9.40625,-9.40625h20.15625c2.28437,0 4.03125,-1.74688 4.03125,-4.03125c0,-2.28438 -1.74688,-4.03125 -4.03125,-4.03125h-20.15625c-9.675,0 -17.46875,7.79375 -17.46875,17.46875v20.15625c0,2.28437 1.74687,4.03125 4.03125,4.03125zM18.8125,170.65625h20.15625c2.28437,0 4.03125,-1.74687 4.03125,-4.03125c0,-2.28438 -1.74688,-4.03125 -4.03125,-4.03125h-20.15625c-5.24062,0 -9.40625,-4.16563 -9.40625,-9.40625v-20.15625c0,-2.28438 -1.74688,-4.03125 -4.03125,-4.03125c-2.28438,0 -4.03125,1.74687 -4.03125,4.03125v20.15625c0,9.675 7.79375,17.46875 17.46875,17.46875zM170.65625,153.1875v-20.15625c0,-2.28438 -1.74687,-4.03125 -4.03125,-4.03125c-2.28438,0 -4.03125,1.74687 -4.03125,4.03125v20.15625c0,5.24062 -4.16563,9.40625 -9.40625,9.40625h-20.15625c-2.28438,0 -4.03125,1.74687 -4.03125,4.03125c0,2.28438 1.74687,4.03125 4.03125,4.03125h20.15625c9.675,0 17.46875,-7.79375 17.46875,-17.46875zM139.75,108.84375h-26.875c-2.28437,0 -4.03125,1.74688 -4.03125,4.03125v26.875c0,2.28438 1.74688,4.03125 4.03125,4.03125h26.875c2.28438,0 4.03125,-1.74687 4.03125,-4.03125v-26.875c0,-2.28437 -1.74687,-4.03125 -4.03125,-4.03125zM135.71875,135.71875h-18.8125v-18.8125h18.8125zM77.9375,143.78125c2.28437,0 4.03125,-1.74687 4.03125,-4.03125v-9.40625h12.09375c2.28437,0 4.03125,-1.74687 4.03125,-4.03125v-26.875c0,-2.28437 -1.74688,-4.03125 -4.03125,-4.03125c-2.28437,0 -4.03125,1.74688 -4.03125,4.03125v22.84375h-12.09375c-2.28437,0 -4.03125,1.74688 -4.03125,4.03125v13.4375c0,2.28438 1.74688,4.03125 4.03125,4.03125zM139.75,63.15625c2.28438,0 4.03125,-1.74687 4.03125,-4.03125v-26.875c0,-2.28438 -1.74687,-4.03125 -4.03125,-4.03125h-26.875c-2.28437,0 -4.03125,1.74687 -4.03125,4.03125v26.875c0,2.28438 1.74688,4.03125 4.03125,4.03125zM116.90625,36.28125h18.8125v18.8125h-18.8125zM32.25,63.15625h26.875c2.28438,0 4.03125,-1.74687 4.03125,-4.03125v-26.875c0,-2.28438 -1.74687,-4.03125 -4.03125,-4.03125h-26.875c-2.28438,0 -4.03125,1.74687 -4.03125,4.03125v26.875c0,2.28438 1.74687,4.03125 4.03125,4.03125zM36.28125,36.28125h18.8125v18.8125h-18.8125zM32.25,90.03125h6.71875c2.28437,0 4.03125,-1.74688 4.03125,-4.03125c0,-2.28437 -1.74688,-4.03125 -4.03125,-4.03125h-6.71875c-2.28438,0 -4.03125,1.74688 -4.03125,4.03125c0,2.28437 1.74687,4.03125 4.03125,4.03125zM77.9375,90.03125c2.28437,0 4.03125,-1.74688 4.03125,-4.03125v-22.84375h12.09375c2.28437,0 4.03125,-1.74687 4.03125,-4.03125v-26.875c0,-2.28438 -1.74688,-4.03125 -4.03125,-4.03125c-2.28437,0 -4.03125,1.74687 -4.03125,4.03125v22.84375h-12.09375c-2.28437,0 -4.03125,1.74687 -4.03125,4.03125v22.84375h-8.0625c-2.28438,0 -4.03125,1.74688 -4.03125,4.03125c0,2.28437 1.74687,4.03125 4.03125,4.03125zM102.125,77.9375c0,2.28437 1.74688,4.03125 4.03125,4.03125h12.09375v12.09375c0,2.28437 1.74688,4.03125 4.03125,4.03125h17.46875c2.28438,0 4.03125,-1.74688 4.03125,-4.03125c0,-2.28437 -1.74687,-4.03125 -4.03125,-4.03125h-13.4375v-12.09375c0,-2.28437 -1.74688,-4.03125 -4.03125,-4.03125h-16.125c-2.28437,0 -4.03125,1.74688 -4.03125,4.03125zM63.15625,139.75v-26.875c0,-2.28437 -1.74687,-4.03125 -4.03125,-4.03125h-26.875c-2.28438,0 -4.03125,1.74688 -4.03125,4.03125v26.875c0,2.28438 1.74687,4.03125 4.03125,4.03125h26.875c2.28438,0 4.03125,-1.74687 4.03125,-4.03125zM55.09375,135.71875h-18.8125v-18.8125h18.8125z"></path></g></g></svg>